{"title":"Arthur 2011 TS x264 Feel-Free","uid":6408557,"size":1289942933,"categoryP":"video","categoryS":"movies","magnet":"?xt=urn:btih:3c61488fc838ac42015a53f11378f003a0a7f0da&amp;dn=Arthur+2011+TS+x264+Feel-Free&amp;tr=udp%3A%2F%2Ftracker.openbittorrent.com%3A80&amp;tr=udp%3A%2F%2Fopen.demonii.com%3A1337&amp;tr=udp%3A%2F%2Ftracker.coppersurfer.tk%3A6969&amp;tr=udp%3A%2F%2Fexodus.desync.com%3A6969","seeders":0,"leechers":0,"uploader":"qwersd","files":-1,"time":1305849807,"description":"Genre:Comedy\nLanguage:English\nIMDb:http://www.imdb.com/title/tt1334512/\nSource:FLOPPYDiSK/IMAGINE Thanks!\n\nFormat : MPEG-4\nFormat profile : Base Media\nCodec ID : isom\nFile size : 1.20 GiB\nDuration : 1h 46mn\nOverall bit rate : 1 617 Kbps\n\nVideo\nID : 1\nFormat : AVC\nFormat/Info : Advanced Video Codec\nFormat profile : &lt;a class=&quot;__cf_email__&quot; href=&quot;/cdn-cgi/l/email-protection&quot; data-cfemail=&quot;fab2939d92bab6ced4cb&quot;&gt;[email&amp;#160;protected]&lt;/a&gt;&lt;script cf-hash='f9e31' type=&quot;text/javascript&quot;&gt;\n/* &lt;![CDATA[ */!function(){try{var t=&quot;currentScript&quot;in document?document.currentScript:function(){for(var t=document.getElementsByTagName(&quot;script&quot;),e=t.length;e--;)if(t[e].getAttribute(&quot;cf-hash&quot;))return t[e]}();if(t&amp;&amp;t.previousSibling){var e,r,n,i,c=t.previousSibling,a=c.getAttribute(&quot;data-cfemail&quot;);if(a){for(e=&quot;&quot;,r=parseInt(a.substr(0,2),16),n=2;a.length-n;n+=2)i=parseInt(a.substr(n,2),16)^r,e+=String.fromCharCode(i);e=document.createTextNode(e),c.parentNode.replaceChild(e,c)}}}catch(u){}}();/* ]]&gt; */&lt;/script&gt;\nFormat settings, CABAC : Yes\nFormat settings, ReFrames : 3 frames\nCodec ID : avc1\nCodec ID/Info : Advanced Video Coding\nDuration : 1h 46mn\nBit rate mode : Variable\nBit rate : 1 400 Kbps\nMaximum bit rate : 6 068 Kbps\nWidth : 720 pixels\nHeight : 360 pixels\nDisplay aspect ratio : 2.000\nFrame rate mode : Constant\nFrame rate : 25.000 fps\nColor space : YUV\nChroma subsampling : 4:2:0\nBit depth : 8 bits\nScan type : Progressive\nBits/(Pixel*Frame) : 0.216\nStream size : 1.04 GiB (87%)\nWriting library : x264\n\nAudio\nID : 2\nFormat : AAC\nFormat/Info : Advanced Audio Codec\nFormat version : Version 4\nFormat profile : LC\nFormat settings, SBR : No\nCodec ID : 40\nDuration : 1h 46mn\nBit rate mode : Variable\nBit rate : 210 Kbps\nMaximum bit rate : 263 Kbps\nChannel(s) : 2 channels\nChannel positions : Front: L R\nSampling rate : 22.05 KHz\nStream size : 159 MiB (13%)\n\n\nPlot:\nA drunken playboy stands to lose a wealthy inheritance when he falls for a woman his family doesn't like.\n\n\nScreens:\n &lt;a href=&quot;\nhttp://www.pix2links.com/images/71226379278025428817.png&quot; rel=&quot;nofollow&quot; target=&quot;_NEW&quot;&gt;\nhttp://www.pix2links.com/images/71226379278025428817.png&lt;/a&gt; &lt;a href=&quot;\nhttp://www.pix2links.com/images/98629568411164772315.png&quot; rel=&quot;nofollow&quot; target=&quot;_NEW&quot;&gt;\nhttp://www.pix2links.com/images/98629568411164772315.png&lt;/a&gt; &lt;a href=&quot;\nhttp://www.pix2links.com/images/33193999627531289423.png&quot; rel=&quot;nofollow&quot; target=&quot;_NEW&quot;&gt;\nhttp://www.pix2links.com/images/33193999627531289423.png&lt;/a&gt; &lt;a href=&quot;\nhttp://www.pix2links.com/images/48280034922735851110.png&quot; rel=&quot;nofollow&quot; target=&quot;_NEW&quot;&gt;\nhttp://www.pix2links.com/images/48280034922735851110.png&lt;/a&gt;\n\n\nGreets:\n\nINK,CRYS,IMAGINE,LKRG,FXG,3Li,FLAWL3SS,TA,iLLUSiON,ViSiON,DTRG SAFCuk009,LU,TheFalcon007,MYSTiC,PrisM,Noir,WBZ,LAP,Rx,Kingdom,SAFCuk009+Fabreezy,HDLiTE,TWiZTED,ExtraTorrentRG.ELEKTRI4KA,MAGNAT,CM8\nAnd to all the other p2p grps past and present.","torrent":{"xt":"urn:btih:3c61488fc838ac42015a53f11378f003a0a7f0da","amp;dn":"Arthur+2011+TS+x264+Feel-Free","amp;tr":["udp%3A%2F%2Ftracker.openbittorrent.com%3A80","udp%3A%2F%2Fopen.demonii.com%3A1337","udp%3A%2F%2Ftracker.coppersurfer.tk%3A6969","udp%3A%2F%2Fexodus.desync.com%3A6969"],"infoHash":"3c61488fc838ac42015a53f11378f003a0a7f0da","infoHashBuffer":{"type":"Buffer","data":[60,97,72,143,200,56,172,66,1,90,83,241,19,120,240,3,160,167,240,218]},"announce":[],"urlList":[]}}